<svg xmlns="http://www.w3.org/2000/svg" width="192" height="192" viewBox="0 0 32 32" shape-rendering="crispEdges">
  <rect width="32" height="32" fill="#3a2a4a"/>
  <!-- 猫耳连帽衫粉猫 -->
  <rect x="8" y="3" width="4" height="5" fill="#ff9ec4"/>
  <rect x="20" y="3" width="4" height="5" fill="#ff9ec4"/>
  <rect x="10" y="6" width="12" height="11" fill="#ffe3c6"/>
  <rect x="10" y="4" width="12" height="3" fill="#ffb7c5"/>
  <rect x="9" y="6" width="2" height="8" fill="#ffb7c5"/>
  <rect x="21" y="6" width="2" height="8" fill="#ffb7c5"/>
  <rect x="13" y="9" width="2" height="3" fill="#2a1a26"/>
  <rect x="18" y="9" width="2" height="3" fill="#2a1a26"/>
  <rect x="11" y="13" width="3" height="1" fill="#ff9db2"/>
  <rect x="19" y="13" width="3" height="1" fill="#ff9db2"/>
  <rect x="11" y="20" width="10" height="8" fill="#ff9ec4"/>
  <rect x="8" y="21" width="3" height="5" fill="#ff9ec4"/>
  <rect x="21" y="21" width="3" height="5" fill="#ff9ec4"/>
  <!-- 爱心 -->
  <rect x="14" y="26" width="4" height="2" fill="#ff6fa5"/>
</svg>
